<svg xmlns="http://www.w3.org/2000/svg" viewBox="0 0 24 24" fill="none" stroke="#22C55E" stroke-width="2" stroke-linecap="round" stroke-linejoin="round">
  <!-- Main stem -->
  <line x1="12" y1="8" x2="12" y2="22"/>

  <!-- Left leaf -->
  <path d="M12 8C10.5 8 9 7.5 7.5 6.5C6 5.5 5 4 5 2.5C5 4 5.5 6 7.5 7.5C9 8.5 10.5 9 12 9"/>

  <!-- Right leaf -->
  <path d="M12 8C13.5 8 15 7.5 16.5 6.5C18 5.5 19 4 19 2.5C19 4 18.5 6 16.5 7.5C15 8.5 13.5 9 12 9"/>

  <!-- Lower left leaf -->
  <path d="M12 13C10.5 13 9 12.5 7.5 11.5C6 10.5 5 9 5 7.5C5 9 5.5 11 7.5 12.5C9 13.5 10.5 14 12 14"/>

  <!-- Lower right leaf -->
  <path d="M12 13C13.5 13 15 12.5 16.5 11.5C18 10.5 19 9 19 7.5C19 9 18.5 11 16.5 12.5C15 13.5 13.5 14 12 14"/>

  <!-- Pot -->
  <path d="M8 22L9 18H15L16 22Z" fill="#22C55E" fill-opacity="0.2"/>
</svg>
