<svg xmlns="http://www.w3.org/2000/svg" viewBox="0 0 100 100" fill="none">
  <!-- Sun -->
  <circle cx="35" cy="35" r="15" fill="#FCD34D"/>

  <!-- Sun rays -->
  <path d="M 35,15 L 35,5" stroke="#FCD34D" stroke-width="3" stroke-linecap="round"/>
  <path d="M 55,35 L 65,35" stroke="#FCD34D" stroke-width="3" stroke-linecap="round"/>
  <path d="M 35,55 L 35,65" stroke="#FCD34D" stroke-width="3" stroke-linecap="round"/>
  <path d="M 15,35 L 5,35" stroke="#FCD34D" stroke-width="3" stroke-linecap="round"/>
  <path d="M 48,22 L 55,15" stroke="#FCD34D" stroke-width="3" stroke-linecap="round"/>
  <path d="M 48,48 L 55,55" stroke="#FCD34D" stroke-width="3" stroke-linecap="round"/>
  <path d="M 22,48 L 15,55" stroke="#FCD34D" stroke-width="3" stroke-linecap="round"/>
  <path d="M 22,22 L 15,15" stroke="#FCD34D" stroke-width="3" stroke-linecap="round"/>

  <!-- Cloud -->
  <path d="M 55,55 Q 50,45 60,45 Q 70,45 72,53 Q 78,53 78,60 Q 78,67 72,67 L 60,67 Q 52,67 52,60 Q 52,55 55,55 Z" fill="#E5E7EB"/>
</svg>
